<svg id="Layer_1" data-name="Layer 1" xmlns="http://www.w3.org/2000/svg" viewBox="0 0 1080 1080"><defs><style>.cls-1{fill:#032623;}.cls-2{fill:#042420;}.cls-3{fill:#f2d6ac;}.cls-4{fill:#faf2df;}.cls-5{fill:#cba06f;}.cls-6{fill:#03251e;}.cls-7{fill:#e2ba8e;}.cls-8{fill:#03251b;}.cls-9{fill:#06221b;}.cls-10{fill:#092627;}.cls-11{fill:#102e30;}.cls-12{fill:#eac99e;}.cls-13{fill:#ea7003;}.cls-14{fill:#eb6b03;}.cls-15{fill:#fbad20;}.cls-16{fill:#fab42c;}.cls-17{fill:#f7f9f0;}.cls-18{fill:#f6f9f1;}.cls-19{fill:#f9a512;}.cls-20{fill:#f98704;}.cls-21{fill:#ea6d02;}.cls-22{fill:#fabd47;}.cls-23{fill:#fbaf24;}.cls-24{fill:#f8f9ee;}.cls-25{fill:#f6faf2;}.cls-26{fill:#e6430e;}.cls-27{fill:#ecb341;}.cls-28{fill:#1aa77c;}.cls-29{fill:#f2f2f0;}.cls-30{fill:#db542e;}.cls-31{fill:#f7f7f3;}.cls-32{fill:#d8f8f5;}.cls-33{fill:#faf3d5;}.cls-34{fill:#fbfae6;}.cls-35{fill:#350f05;}.cls-36{fill:#52270e;}.cls-37{fill:#f5e398;}.cls-38{fill:#2c2a10;}.cls-39{fill:#1a3333;}</style></defs><title>logo</title><path class="cls-1" d="M929.78,371c26.41-11.12,54.53-2.51,81.69-6.72,10.88-1.69,13.72,9.22,14.93,19.91,17.63,156.66,9.81,313.94,6.73,470.7-1.45,73.78-17.86,150.06-90.26,196-55.65,35.28-113.81,39.4-170.53,7.48-24.31-13.68-47.18-20-73.45-17.7-18.13,1.58-24.49-6.11-22.6-23.29.69-6.24-.45-12.69.24-18.94,1.23-11.23-2.82-15.1-14.47-15-82.2.4-164.41.52-246.61-.24-13.89-.13-12.59,6.85-12.81,15.93-1.05,43.11-1.2,43.39-44.49,41.49-12-.53-21.69.55-32.66,8.15C216.59,1124.17,69.41,1053,53.17,921.12c-19-154.46-5.89-309.21-10.59-463.74-.67-21.81,4.34-43.85,7.37-65.7,2.37-17.16,11.11-26.52,30.29-25.45,20.47,1.14,41.08,0,61.62-.31,14.31-.24,23.4,7.22,23.6,20.69S157,407.46,142.7,408.66c-13.7,1.15-32.51-7.6-40,4.84a107.74,107.74,0,0,0-15,56.63c.75,49.78,1.58,99.57,1.83,149.36.32,62.16.08,124.32.08,192.46,46.54-54,102-71.53,166-65.11,77.22-3,140.27,75.39,145.05,147.25.71,10.74-2.54,22.41,6.67,31.33,7.84,5.62,16.82,3.45,25.36,3.87,71.92,3.49,143.46-8.74,215.36-5.23,17.77.87,22.17-8.13,24.18-24.17,9.35-74.8,49.38-126.49,119.87-154.14,71.61-18.69,123.21-6.39,188.37,45.62,2.21-18.19-.65-35.43-.6-52.61.24-84.5.11-169,.11-253.5,0-13.43-.5-26.73-3.55-40-3.85-16.75-10.82-28.29-30.2-30.82C930,412.33,918.79,402.6,920.4,383.7A16.9,16.9,0,0,1,929.78,371Z"/><path class="cls-2" d="M210.05,713.68c-9-3.83-9.42-11.66-9.39-19.83.17-49.79.61-99.57.21-149.34-.12-14.68,5.89-19.61,19.9-18.91,15,.74,30,0,45,0,7.82,0,12.64.38,10.08-11.5-22.1-102.7,7.74-190.2,81.86-262.59,83.56-81.62,231.79-110.4,359-12.45,39.13,20.11,57,57.62,74.54,94.32C815.93,385,822.57,440.48,818,496.94c-1.67,20.62,4.93,25.79,24.24,24.79,13.94-.72,30.55-5.66,40.66,10.75,4.62,54.46,1.43,109,1.75,163.45.12,18.78-11.75,23.84-28.17,23.82-40.29,0-80.56,2.45-120.87,1.53-143-3.29-286.08-1-429.11-1.17C274.08,720.07,242.19,715.83,210.05,713.68Z"/><path class="cls-3" d="M399.1,932.07c-9-4.16-4.86-12.32-5-18.59C392.77,828,349.62,772.83,266.45,750.84c-3.68-1-7.18-2.65-10.76-4,13-5.07,5.67-9.56-1.31-9.51-20.31.13-12.5-9.48-7.52-18.65,4.24-5.29,10.2-3.21,15.42-3.21q216.72-.18,433.44,0c5.34,0,11.15-1.46,16.29,3.53-3.3,17.54-18.7,19.38-31.86,22.56-37.35,9-72,23.82-102.68,47-32.83,24.76-58.7,55-69.9,95.71-7.3,26.55-7.1,26.89,17.65,38.27,2.8,1.28,5.77,2.7,6.22,11C487.23,933.16,443.22,935,399.1,932.07Z"/><path class="cls-4" d="M929.78,371l-5.23,9.8c-4,5.61,2.68,14.43-.13,16C865.52,369,826.26,320.94,777.24,285c-18.1-14.23-40.35-23.89-51-46.3,10.25-30.62,5.58-36.91-23.89-48.36-22.32-8.68-42.84-22.09-63.83-34-3.74-2.12-6.39-9.81-10.93-7-21.43,13.45-34.58-1.31-49.37-12.62-6.67-5.1-15.7-4.08-23-2.33-23.43,5.59-41-5.14-58-18.5-3.1-2.43-5.6-5.65-8.79-7.91-9.8-6.89-27.4-9.06-24-25,3.38-15.71,21.38-11.6,32.54-13.63,54.54-9.9,108-7,162.34,8.33,48,13.58,88.42,37.75,129.39,64.24a625.56,625.56,0,0,1,54.39,39.22c11.85,9.6,18.45,21.06,21.68,35.27,4.8,10.77,5.42,21.33-1.67,31.47-.52.58-1.61,1.46-1.49,1.69,9.77,18.39,6.33,44.32,22.56,57,17.32,13.49,22,35.36,39.42,47.7C927.59,357.11,927.81,365.29,929.78,371Z"/><path class="cls-5" d="M399.1,932.07H526c-36.53-8.29-37-8.43-26.8-45.49,20.36-73.73,74.72-113.53,141.46-141.33,22-9.15,47.37-8.5,66.87-26.58H246.86c-12.2-2.26-25.44,3.11-36.82-5q319,.17,637.9.33c31.95,0,32.25.16,32-31.92-.44-51.35-1.31-102.69-2-154a5.2,5.2,0,0,1,7.09,1c6.41,9.91,5,21.22,5,32q.53,62.42.06,124.84c-.23,32.87-4.18,39.52-35.12,39.66-25.38.11-42.8,13.37-61.76,25.75C734.76,777,696.12,819.5,681.51,882.43A106.71,106.71,0,0,0,679,901.11c-1.59,31.64-1.5,31.69-32.09,31.9q-112.35.75-224.7,1.32C414.53,934.36,406.45,936.41,399.1,932.07Z"/><path class="cls-6" d="M540.1,0c120-.18,226.2,38.64,320.44,111.84,11.71,9.1,23.93,19.2,11.88,35.08C861,162,848.73,163,831.12,150.54c-60.85-43-125.36-79.89-200-93.75-140.52-26.1-268.11,2.84-380.72,92.27-13.5,10.71-26.5,15.9-38.91.45s-4.84-26.91,8.65-37.89C313.42,35.66,420.94,1.25,540.1,0Z"/><path class="cls-7" d="M882.54,528.05l-2.32-.08-2.32.07c-17.33-.45-34.69-1.75-52-1.08-14.53.56-17.83-3-16.19-18.58,10.91-104-16.85-195.16-93.05-269.3l9.55-.38,52.38,42.15c35.62,29.68,57.62,69.33,79.84,108.84,10.42,18.52,19.65,37.87,37.29,51.23,5.08,3.84,9.36,9.2,10,15.65,1.93,20.39,6.17,40.53,6.61,61.07a28.84,28.84,0,0,1-1.48,9.32c-3.13,9.77-5.5,21.9-18.21,21.63C879.53,548.3,889.67,533.24,882.54,528.05Z"/><path class="cls-8" d="M149.44,208.86c20.48,0,40.95.15,61.42,0,15.73-.15,23.62,8.25,23.74,23.06.12,14.36-9,21.4-22.75,21.55q-63.78.7-127.55.67c-13.29,0-23.4-6-23.75-20.67s7.58-24.11,22.76-24.55c22-.62,44.09-.16,66.13-.16Z"/><path class="cls-9" d="M863.1,247.91c-3.65-10.71-.89-21.09,1.67-31.47,6.71-8.85,16.62-7.25,25.66-7.35,28.27-.31,56.55.28,84.8-.25,16.5-.31,29,5.56,29.76,22.64.76,17.9-11.39,23-28.35,22.35-29-1-58.1,0-87.15-.41C880.5,253.3,870.69,255.43,863.1,247.91Z"/><path class="cls-10" d="M174.87,333.25c-15.75-1-27.14-6.84-29.41-22.68-2-14,13.2-28.33,29-27.55,15.64.77,24.27,9.52,25,25.6C200.24,326.54,187.8,330.43,174.87,333.25Z"/><path class="cls-11" d="M941.37,332.73c-15.14-1.36-24.88-8.89-25.23-24.86-.37-16.26,9.71-24.94,24.72-24.91s25.86,9.38,25.94,24.65C966.87,322.55,957.45,331.8,941.37,332.73Z"/><path class="cls-12" d="M882.54,528.05c8.71,2,.81,18.6,12.62,15.83,8.58-2,11-14.23,9.75-19.78-6.77-29.78,9.77-65.94-25.4-88.63-10.19-6.58-17.49-20.22-22.22-32.16-10.53-26.57-32-46.63-41.87-73.16-7.54-20.31-33.46-26.28-36.81-49.3,21,18.92,49.5,27,65.51,54.83,9.73,16.9,32.62,30.33,52.3,36.09,15.29,4.48,19.57,10.48,20.85,24.14,5.21-4.82,1.1-12.29,7.28-15.1C923,403.57,936.6,410,955.84,408.45c13.43-1.06,18.22,3.71,22.59,16.92,8.87,26.88,10.45,53.88,10.36,81.62-.32,100.85-.13,201.7-.13,306.89-52.7-65.12-119.91-77.8-195.42-62.52-.34-16.09,19.36-12,22.93-21.71,5.26-14.32,13.19-9.85,23.52-8.77,11.38,1.18,23.29-1.71,34.85-3.58,9.65-1.57,8.82-9.76,8.79-16.77Q883,614.28,882.54,528.05Z"/><path class="cls-13" d="M934.89,831.85c31.19,20.25,38.81,51.89,37.45,85.44-1.94,47.77-30,80.17-70.58,101.13-39.17,20.23-78.68,18.89-115.8-7.14-1.15-.81-1.72-2.47-2.56-3.73-3.75-12.09,6.23-16.59,13-22.31C813.9,970.4,834.92,960.11,852,944.9c12.62-11.25,30.94-20.92,24.84-43.47-6.09-14.86-23.88-13.33-33.17-23.71.4-8.18,6.46-11.9,12.31-15.87,18.71-12.74,41.28-18.19,59.52-32C921.61,825.23,928.84,826.92,934.89,831.85Z"/><path class="cls-14" d="M319.56,841.09c52.74,47.53,28.6,149.68-43.87,180.1-41.75,17.53-81.47,11.56-118.94-12.86,6.7-16.62,22.38-23.86,35.52-33.58,19.07-14.09,39.2-26.85,53.94-46,8.75-11.33,14.54-23,1.75-35.4-6.13-5.1-14.67-7.85-16.64-17C249,850.73,289.44,834.56,319.56,841.09Z"/><path class="cls-15" d="M251.91,888.6c16.45,12.26,11.47,26,2.53,39.75-13.64,21-34.61,33.82-54.29,48.06-14.55,10.53-29,21.27-43.41,31.91a24.92,24.92,0,0,1-15.08-11.11c-13.29-25-25.58-50.25-22.7-80,6.39-65.74,67.56-121.44,143.24-110.8,7.74,1.09,15.58,1.94,23.07,4.41,14.9,6.14,27.66,14.7,34.28,30.23-30.61,8.32-63.12,12.23-86.56,37.23-2.72,6.11-9.26,8-13.61,12.31-5.93,5.9-9.44,12.62-5.55,20.84,3.75,7.93,10.61,11.18,19.18,9.64,8.31-1.49,14.09-6,15.41-15C249.28,900.21,246.19,893.51,251.91,888.6Z"/><path class="cls-16" d="M882.29,899.25c10.85,9.11,2.44,16.5-2.16,24.24C862,954,828.41,966,802.81,987.61c-7.23,6.1-15.33,10.93-19.41,19.94l-9.62-4.73c-8.48-19.29-23.23-35.13-27.68-56.88-14.79-72.27,37.77-138.87,111.61-140.4,18.21-.38,36.11.76,53.61,6.06,10.75,3.37,19.23,9.4,23.57,20.24-32,12-63.38,25.12-89.93,47.43,2.88,7.08-3.35,11.36-5.24,17-2.63,7.74-4.13,15.69,3.88,20.86,7.29,4.72,14.9,2.48,21.78-2.13C871.85,910.63,875,902.69,882.29,899.25Z"/><path class="cls-17" d="M285.27,810.86c-33.95,3.43-68.9-3.66-101,16.61-49.75,31.44-74.84,92.56-48.28,144,3.34,6.46,16.46,14.76,5.65,25.79C95,959.06,87.21,892.62,123.53,842.62,160.88,791.2,230.8,777.47,285.27,810.86Z"/><path class="cls-18" d="M911.32,811.6c-15.76-.12-31.51-.44-47.27-.31C776.43,812,725.46,894.58,763.76,973c4.53,9.26,14.82,17.25,10,29.86-40.66-28.9-56.38-73.82-42.91-122.56,13-47,56.48-83.26,104.23-86.88C862.45,791.31,888.54,794.54,911.32,811.6Z"/><path class="cls-19" d="M590,663.5c-60,.52-120,1.29-180,1.47-45.8.14-91.6-.46-137.4-.74-15.84-16.89-11.92-37-5.83-55.22s24.4-17.66,40.13-17.8c66.85-.62,133.72-.87,200.56.07,26.82.38,53.14-6.57,79.91-3.61a28.41,28.41,0,0,1,7.86,2.91C596.49,615.06,600.12,639.77,590,663.5Z"/><path class="cls-20" d="M681.08,271.52c45.44,33.21,63.88,82,77.24,133.75,2.79,10.79-3,14.21-12.73,14.12-69.41-.63-138.88,3.63-208.22-2.51-3.69-11.52,3-19.93,9.41-27.66,29.8-36.2,55.5-76.53,98.39-99.9,1.19-.64,1.53-2.67,2-4.23,2.26-6.84,3.74-14.18,11.45-17.42C666.85,264.58,673.83,268.82,681.08,271.52Z"/><path class="cls-21" d="M590,663.5c-.43-15.45-.55-30.91-1.42-46.33-.53-9.28,1.32-16.9,9.89-21.78,13-13.3,30.67-12.23,46.65-12.93,53.7-2.34,107.5-1,161.26-.75,8.8,0,17.4,1.31,24.24,7.77.34,19.72.41,39.46,1.12,59.17.37,10.57-2.9,16.3-14.52,16.21C741.51,664.25,665.75,667.35,590,663.5Z"/><path class="cls-22" d="M498,418c-52,3.79-104,3.3-156,1-8.85-18.57,4.87-32.9,10-48.42,5.65-17,14.75-32.84,28.54-45.19,13.56-14.73,31.81-19.66,50.41-20.51,25.48-1.16,39.77-15.55,50.07-36.26,6.78-13.63,14.75-25.83,30.22-30.91,29.76-16.06,61.3-7.38,92.26-6.73,10.2,2.24,20.14,5.09,28.3,12.12-45.7,11.14-69.55,49.61-99.18,80.38-28.66,29.77-35.43,34.84-76,40.8,2,9.6,8.07,18.63,1.51,29.66s4.64,11.69,12.33,13.61C480.06,409.87,493.53,402.36,498,418Z"/><path class="cls-23" d="M498,418c-5.81-6-13.32-3.61-20.21-4-5.51-.32-11.06,0-16.59-.27-9.42-.39-13.55-5.32-14.87-14.83-1.24-9,21.56-14,1-28.36-9.88-6.9,4.13-16.61,19.34-14.69,15.76,2,33.63-5,42.75-16.11,14.84-18.05,30.81-35.89,46.87-51.93C576.59,267.56,593,234.26,631.84,243c18.85,5.27,35.51,14.33,49.23,28.48l-27.81.56c-7.9,3.47-16.77-6.3-24.65,1.71,2.32,12,16.19,8.63,21.32,16.5.32,2,1.18,5.66.89,5.75-38.64,12.32-57.46,46.73-81.68,74.58-12.13,13.95-25.74,27.76-31.78,46.27C524.34,420.23,511.21,420.22,498,418Z"/><path class="cls-24" d="M593.12,594.14c-92.58,7.2-185.39,3.33-278.07,5.91-7.07.2-14.15.32-21.22.09-15.07-.49-23.84,4.38-22.21,21.7,1.33,14,.75,28.26,1,42.4-20,5-28.95-1-25.83-23.26s-9.45-51.44,5.85-65.79c13.89-13,42.19-3.94,64.1-3.94,87.6,0,175.2.68,262.8,1.1C604.62,574.48,605.1,575.25,593.12,594.14Z"/><path class="cls-25" d="M603.54,230.92c-32,2.94-64.28,3.09-95.39,12.48-15.27,3.48-24.61,18-40,21.38-13.92-.67-25.38,3.94-33.47,15.7-16.13,16.61-38.73,26.43-50.24,47.91-20.84,27-34.11,57.64-42.47,90.55-18.39,4.32-24.67.41-20.75-21C342.58,281.52,465.36,199,580.75,225,588.4,226.77,595.94,229,603.54,230.92Z"/><path class="cls-26" d="M596.17,480.26c16.12,6.5,28.35,18.67,41.43,29.37,5.92,4.84,11.61,16.31-2.22,16.22-49-.34-98.25,6.22-147-3.76-4.74-15.39,6.15-23.23,15.72-31.1C532.36,467.75,564,471.35,596.17,480.26Z"/><path class="cls-27" d="M593.12,594.14c7.28-14.71.8-20.77-13.62-21.79,78.84-.37,157.62-.5,236.39-1.31,14.46-.15,18.5,5.35,14.76,18.44-77.38,2-155-4.64-232.15,5.9Z"/><path class="cls-28" d="M658.49,474.78c-5.5-5.48-2.63-8.6,3.38-8.64,25.16-.14,50.61-1.9,75.39,1.3,16.17,2.08,30.63,13.33,34.6,31.18,2.67,12-4.18,23.69-15,26.46-16.26,4.15-33.39,6.72-50-3.49-14.85-9.14-22.18-24-32.74-36.38,7.52-8.49,18-5.61,27.37-7.71C687,479.26,672.82,475.72,658.49,474.78Z"/><path class="cls-29" d="M596.17,480.26c-26-1.46-52.17-4.69-76.53,8.65-14.05,7.69-26.88,16.42-31.26,33.17-15.86,6.36-32.25,3.71-49.54,4C490,466.1,541.5,447.47,596.17,480.26Z"/><path class="cls-30" d="M373.8,467.74c20.29-2.39,40,2,64.7,3.85-23.3,18.74-45.62,31.39-63.56,49.75-8.92,9.12-22.49,3.45-34.06,1.59-7.63-24.08.38-43.94,19.94-49.4Z"/><path class="cls-31" d="M373.8,467.74l13.1,3.87c-34.19.12-45.93,20.49-46,51.32C321.76,527.62,318,515.4,317,500.81c-1.27-17.74,5.35-30.72,24.29-33.11C351.94,466.36,363,467.64,373.8,467.74Z"/><path class="cls-32" d="M658.49,474.78c17.13-10.51,35.89-3.22,53.83-4.86,3.12-.29,6.25.94,5.48,5.21-.88,4.92-3.3,9.06-8.77,9.31-11.63.53-23.29.54-34.94.77Z"/><path class="cls-12" d="M872.64,521.6H818.29c0-.54-.06-1.09-.1-1.64h54.38Z"/><path class="cls-33" d="M882.29,899.25c-2.08,7.3-2.87,14.33-10.15,20-12.84,10.09-26.94,13.56-37.65,2.16-9.65-10.27-8.13-24.63,4.62-34.94,2.36-1.91,3.92-4.8,5.85-7.24C862.25,876.87,875.84,881.39,882.29,899.25Z"/><path class="cls-34" d="M251.91,888.6c4.39,14.79,7.8,29.51-10.35,37.93-14.53,6.75-33-.42-36.82-13.78-4.65-16.34,5.65-28.9,28.25-34.43Z"/><path class="cls-35" d="M671.52,333.28c10.11.9,16.89,6.45,17.79,17.46.72,8.81-2.49,15.9-12.63,16.14-11.22.25-17.48-6.09-18.43-17.09C657.47,340.86,660.86,334.46,671.52,333.28Z"/><path class="cls-36" d="M649.93,290.29c-3.15.14-6.33.64-9.45.37-10.18-.89-18.14-5.56-21.85-15.36A9.78,9.78,0,0,1,623.26,263c9.15-4.89,16.55,1.16,24.09,5.21,2.07,1.12,4,2.57,5.92,3.86C655.07,278.68,652.73,284.53,649.93,290.29Z"/><path class="cls-37" d="M465.13,261.93c13.14-9,25.6-19.52,43-18.53-5.93,6-13.84,10.09-16.91,19-13.52,39-43,53-81.94,51.41-11.72-.48-13.11,15.66-24.83,14.63,4.1-27.44,29.26-35.95,46.4-51.67C450.3,290.34,456.83,274.07,465.13,261.93Z"/><path class="cls-38" d="M419.13,366.07c-9-1.44-16.2-6.08-17-16.08-.91-11.34,5.41-17.81,16.74-18.15,9.1-.27,16.1,5.27,16.27,13.73C435.31,355,431.07,364,419.13,366.07Z"/><path class="cls-39" d="M465.13,261.93c3.63,16.27-4.45,25.54-19.12,29.16-10.9,2.69-15.88-3.47-15.13-14.38C439.74,265.87,447,251.37,465.13,261.93Z"/></svg>